# xmcd
#
# Track frame offsets: 
#        150
#        17333
#        34940
#
# Disc length: 879 seconds
#
# Revision: 0
# Processed by: cddbd v1.5.2PL0 Copyright (c) Steve Scherf et al.
# Submitted via: ExactAudioCopy v0.99pb3
#
DISCID=17036d03
DTITLE=Herbert Grönemeyer - Morgenrot (maxi)
DYEAR=1994
DGENRE=Pop
TTITLE0=Morgenrot (Single Edit)
TTITLE1=Ich geb nichts mehr (Album Version)
TTITLE2=Ich geb nichts mehr (Extended Version)
EXTD=
EXTT0=
EXTT1=
EXTT2=
PLAYORDER=
